<svg xmlns="http://www.w3.org/2000/svg" xmlns:xlink="http://www.w3.org/1999/xlink" version="1.1" width="256" height="256" viewBox="0 0 256 256" xml:space="preserve">

<defs>
</defs>
<g style="stroke: none; stroke-width: 0; stroke-dasharray: none; stroke-linecap: butt; stroke-linejoin: miter; stroke-miterlimit: 10; fill: none; fill-rule: nonzero; opacity: 1;" transform="translate(1.4065934065934016 1.4065934065934016) scale(2.81 2.81)" >
	<path d="M 73.653 90 H 16.347 c -3.853 0 -6.987 -3.135 -6.987 -6.987 V 6.987 C 9.36 3.134 12.494 0 16.347 0 h 57.307 c 3.853 0 6.986 3.134 6.986 6.987 v 76.026 C 80.64 86.865 77.506 90 73.653 90 z M 16.347 4 C 14.7 4 13.36 5.34 13.36 6.987 v 76.026 C 13.36 84.66 14.7 86 16.347 86 h 57.307 c 1.646 0 2.986 -1.34 2.986 -2.987 V 6.987 C 76.64 5.34 75.3 4 73.653 4 H 16.347 z" style="stroke: none; stroke-width: 1; stroke-dasharray: none; stroke-linecap: butt; stroke-linejoin: miter; stroke-miterlimit: 10; fill: rgb(0,0,0); fill-rule: nonzero; opacity: 1;" transform=" matrix(1 0 0 1 0 0) " stroke-linecap="round" />
	<path d="M 45.327 31.748 c -4.486 0 -8.135 -3.649 -8.135 -8.135 v -3.579 c 0 -4.486 3.649 -8.135 8.135 -8.135 c 4.486 0 8.136 3.649 8.136 8.135 v 3.579 C 53.463 28.098 49.813 31.748 45.327 31.748 z M 45.327 15.898 c -2.28 0 -4.135 1.855 -4.135 4.135 v 3.579 c 0 2.28 1.855 4.135 4.135 4.135 s 4.136 -1.855 4.136 -4.135 v -3.579 C 49.463 17.753 47.607 15.898 45.327 15.898 z" style="stroke: none; stroke-width: 1; stroke-dasharray: none; stroke-linecap: butt; stroke-linejoin: miter; stroke-miterlimit: 10; fill: rgb(0,0,0); fill-rule: nonzero; opacity: 1;" transform=" matrix(1 0 0 1 0 0) " stroke-linecap="round" />
	<path d="M 54.605 46.438 H 36.049 c -1.104 0 -2 -0.896 -2 -2 v -5.412 c 0 -6.219 5.059 -11.278 11.278 -11.278 s 11.278 5.059 11.278 11.278 v 5.412 C 56.605 45.542 55.71 46.438 54.605 46.438 z M 38.049 42.438 h 14.556 v -3.412 c 0 -4.013 -3.265 -7.278 -7.278 -7.278 c -4.013 0 -7.278 3.265 -7.278 7.278 V 42.438 z" style="stroke: none; stroke-width: 1; stroke-dasharray: none; stroke-linecap: butt; stroke-linejoin: miter; stroke-miterlimit: 10; fill: rgb(0,0,0); fill-rule: nonzero; opacity: 1;" transform=" matrix(1 0 0 1 0 0) " stroke-linecap="round" />
	<path d="M 69.378 58.557 H 20.622 c -1.104 0 -2 -0.896 -2 -2 s 0.896 -2 2 -2 h 48.756 c 1.104 0 2 0.896 2 2 S 70.482 58.557 69.378 58.557 z" style="stroke: none; stroke-width: 1; stroke-dasharray: none; stroke-linecap: butt; stroke-linejoin: miter; stroke-miterlimit: 10; fill: rgb(0,0,0); fill-rule: nonzero; opacity: 1;" transform=" matrix(1 0 0 1 0 0) " stroke-linecap="round" />
	<path d="M 69.378 68.329 H 20.622 c -1.104 0 -2 -0.896 -2 -2 s 0.896 -2 2 -2 h 48.756 c 1.104 0 2 0.896 2 2 S 70.482 68.329 69.378 68.329 z" style="stroke: none; stroke-width: 1; stroke-dasharray: none; stroke-linecap: butt; stroke-linejoin: miter; stroke-miterlimit: 10; fill: rgb(0,0,0); fill-rule: nonzero; opacity: 1;" transform=" matrix(1 0 0 1 0 0) " stroke-linecap="round" />
	<path d="M 69.378 78.103 H 20.622 c -1.104 0 -2 -0.896 -2 -2 s 0.896 -2 2 -2 h 48.756 c 1.104 0 2 0.896 2 2 S 70.482 78.103 69.378 78.103 z" style="stroke: none; stroke-width: 1; stroke-dasharray: none; stroke-linecap: butt; stroke-linejoin: miter; stroke-miterlimit: 10; fill: rgb(0,0,0); fill-rule: nonzero; opacity: 1;" transform=" matrix(1 0 0 1 0 0) " stroke-linecap="round" />
	<path d="M 45.327 29.748 L 45.327 29.748 c -3.388 0 -6.135 -2.747 -6.135 -6.135 v -3.579 c 0 -3.388 2.747 -6.135 6.135 -6.135 h 0 c 3.388 0 6.135 2.747 6.135 6.135 v 3.579 C 51.463 27.001 48.716 29.748 45.327 29.748 z" style="stroke: none; stroke-width: 1; stroke-dasharray: none; stroke-linecap: butt; stroke-linejoin: miter; stroke-miterlimit: 10; fill: rgb(0,0,0); fill-rule: nonzero; opacity: 1;" transform=" matrix(1 0 0 1 0 0) " stroke-linecap="round" />
	<path d="M 54.605 44.438 v -5.412 c 0 -5.124 -4.154 -9.278 -9.278 -9.278 h 0 c -5.124 0 -9.278 4.154 -9.278 9.278 v 5.412 H 54.605 z" style="stroke: none; stroke-width: 1; stroke-dasharray: none; stroke-linecap: butt; stroke-linejoin: miter; stroke-miterlimit: 10; fill: rgb(0,0,0); fill-rule: nonzero; opacity: 1;" transform=" matrix(1 0 0 1 0 0) " stroke-linecap="round" />
</g>
</svg>